<svg xmlns="http://www.w3.org/2000/svg" viewBox="0 0 64 64" role="img" aria-label="Arkiv Agent Notes">
  <rect width="64" height="64" rx="14" fill="#e8f1ec"/>
  <path d="M22 16c-4 0-7 3-7 7 0 2 1 4 2 5-2 1-4 4-4 7 0 4 3 8 8 8h2v5h6V16h-7Zm20 0h-7v32h6v-5h2c5 0 8-4 8-8 0-3-2-6-4-7 1-1 2-3 2-5 0-4-3-7-7-7Z" fill="none" stroke="#036246" stroke-width="4" stroke-linecap="round" stroke-linejoin="round"/>
  <path d="M23 28h-5m5 8h-4m22-8h5m-5 8h4" stroke="#036246" stroke-width="4" stroke-linecap="round"/>
</svg>
